<svg width="28" height="28" viewBox="0 0 28 28" fill="none" xmlns="http://www.w3.org/2000/svg">
<rect width="28" height="28" rx="14" fill="#828897"/>
<path d="M7.29922 13.8536C10.7441 12.3718 13.0413 11.3949 14.1907 10.9229C17.4724 9.57531 18.1543 9.34122 18.5988 9.3334C18.6965 9.33179 18.9151 9.3557 19.0567 9.46913C19.1762 9.5649 19.2091 9.69427 19.2249 9.78507C19.2406 9.87587 19.2602 10.0827 19.2446 10.2443C19.0668 12.0891 18.2973 16.5659 17.9058 18.632C17.7402 19.5063 17.414 19.7994 17.0982 19.8281C16.412 19.8905 15.8909 19.3804 15.2262 18.9502C14.1862 18.2772 13.5986 17.8582 12.589 17.2013C11.4223 16.4423 12.1787 16.0251 12.8436 15.3433C13.0176 15.1649 16.0412 12.4497 16.0997 12.2034C16.107 12.1726 16.1138 12.0578 16.0447 11.9971C15.9756 11.9365 15.8736 11.9572 15.8 11.9737C15.6957 11.9971 14.0342 13.0813 10.8155 15.2263C10.3439 15.5461 9.91675 15.7018 9.53402 15.6937C9.11209 15.6847 8.30046 15.4581 7.6971 15.2645C6.95706 15.027 6.36888 14.9015 6.4201 14.4981C6.44678 14.288 6.73982 14.0732 7.29922 13.8536Z" fill="#25282D"/>
</svg>
