<svg width="28" height="28" viewBox="0 0 28 28" fill="none" xmlns="http://www.w3.org/2000/svg">
<rect width="28" height="28" rx="14" fill="#828897"/>
<path fill-rule="evenodd" clip-rule="evenodd" d="M21.7916 10.0048C21.9052 9.61778 21.7916 9.33333 21.2512 9.33333H19.4643C19.0099 9.33333 18.8006 9.57903 18.687 9.85004C18.687 9.85004 17.7783 12.1143 16.491 13.5851C16.0745 14.0109 15.8852 14.1462 15.658 14.1462C15.5444 14.1462 15.38 14.0109 15.38 13.6239V10.0048C15.38 9.54027 15.2482 9.33333 14.8695 9.33333H12.0615C11.7777 9.33333 11.6069 9.54889 11.6069 9.75322C11.6069 10.1936 12.2504 10.2951 12.3168 11.5337V14.2238C12.3168 14.8136 12.2127 14.9206 11.9855 14.9206C11.3797 14.9206 9.90632 12.646 9.03228 10.0435C8.861 9.53766 8.6892 9.33333 8.23253 9.33333H6.44565C5.93511 9.33333 5.83301 9.57903 5.83301 9.85004C5.83301 10.3339 6.43889 12.7337 8.65372 15.9076C10.1304 18.0749 12.2106 19.25 14.1037 19.25C15.2396 19.25 15.38 18.989 15.38 18.5395V16.9013C15.38 16.3794 15.4876 16.2753 15.8472 16.2753C16.1124 16.2753 16.5666 16.4107 17.6269 17.4557C18.8384 18.6941 19.038 19.25 19.7196 19.25H21.5065C22.017 19.25 22.2723 18.989 22.125 18.474C21.9639 17.9607 21.3855 17.2162 20.6179 16.3333C20.2014 15.8301 19.5766 15.2882 19.3875 15.0173C19.1224 14.6689 19.1981 14.5141 19.3875 14.2046C19.3875 14.2046 21.5644 11.0694 21.7916 10.0049V10.0048Z" fill="#25282D"/>
</svg>
