<svg width="28" height="28" viewBox="0 0 28 28" fill="none" xmlns="http://www.w3.org/2000/svg">
<rect width="28" height="28" rx="14" fill="#828897"/>
<path fill-rule="evenodd" clip-rule="evenodd" d="M19.9345 9.07118C20.5841 9.24412 21.0964 9.75059 21.2713 10.3929C21.5961 11.5665 21.5836 14.0124 21.5836 14.0124C21.5836 14.0124 21.5836 16.4459 21.2713 17.6194C21.0964 18.2618 20.5841 18.7682 19.9345 18.9412C18.7477 19.25 14.0003 19.25 14.0003 19.25C14.0003 19.25 9.26542 19.25 8.06608 18.9288C7.41644 18.7559 6.90422 18.2494 6.72932 17.6071C6.41699 16.4459 6.41699 14 6.41699 14C6.41699 14 6.41699 11.5665 6.72932 10.3929C6.90422 9.75059 7.42893 9.23176 8.06608 9.05882C9.25292 8.75 14.0003 8.75 14.0003 8.75C14.0003 8.75 18.7477 8.75 19.9345 9.07118ZM16.3337 14L12.8337 16.3333V11.6667L16.3337 14Z" fill="#25282D"/>
</svg>
